<mxfile host="app.diagrams.net" modified="2023-07-05T22:29:16.901Z" agent="Mozilla/5.0 (Windows NT 10.0; Win64; x64) AppleWebKit/537.36 (KHTML, like Gecko) Chrome/113.0.0.0 Safari/537.36" etag="_LyOtb9I0rFJLjBmcV_0" version="21.6.1" type="google">
  <diagram name="PÃ¡gina-1" id="ZLpGsXBCC-5uJXEe9l39">
    <mxGraphModel grid="1" page="1" gridSize="10" guides="1" tooltips="1" connect="1" arrows="1" fold="1" pageScale="1" pageWidth="827" pageHeight="1169" math="0" shadow="0">
      <root>
        <mxCell id="0" />
        <mxCell id="1" parent="0" />
        <mxCell id="z8D4OWpc4WG4uMuVLdWu-1" value="Cliente" style="shape=umlActor;verticalLabelPosition=bottom;verticalAlign=top;html=1;outlineConnect=0;" vertex="1" parent="1">
          <mxGeometry x="200" y="200" width="30" height="60" as="geometry" />
        </mxCell>
        <mxCell id="z8D4OWpc4WG4uMuVLdWu-2" value=":Maquina" style="rounded=0;whiteSpace=wrap;html=1;" vertex="1" parent="1">
          <mxGeometry x="530" y="200" width="120" height="60" as="geometry" />
        </mxCell>
        <mxCell id="z8D4OWpc4WG4uMuVLdWu-3" value="" style="rounded=0;whiteSpace=wrap;html=1;" vertex="1" parent="1">
          <mxGeometry x="205" y="290" width="20" height="380" as="geometry" />
        </mxCell>
        <mxCell id="z8D4OWpc4WG4uMuVLdWu-4" value="" style="rounded=0;whiteSpace=wrap;html=1;" vertex="1" parent="1">
          <mxGeometry x="580" y="290" width="20" height="370" as="geometry" />
        </mxCell>
        <mxCell id="z8D4OWpc4WG4uMuVLdWu-5" style="edgeStyle=orthogonalEdgeStyle;rounded=0;orthogonalLoop=1;jettySize=auto;html=1;exitX=0.5;exitY=0.5;exitDx=0;exitDy=0;exitPerimeter=0;dashed=1;endArrow=none;endFill=0;" edge="1" parent="1" source="z8D4OWpc4WG4uMuVLdWu-1">
          <mxGeometry relative="1" as="geometry">
            <mxPoint x="215" y="700" as="targetPoint" />
          </mxGeometry>
        </mxCell>
        <mxCell id="z8D4OWpc4WG4uMuVLdWu-8" style="edgeStyle=orthogonalEdgeStyle;rounded=0;orthogonalLoop=1;jettySize=auto;html=1;exitX=0.5;exitY=0.5;exitDx=0;exitDy=0;exitPerimeter=0;dashed=1;endArrow=none;endFill=0;" edge="1" parent="1">
          <mxGeometry relative="1" as="geometry">
            <mxPoint x="590" y="710" as="targetPoint" />
            <mxPoint x="589.5" y="260" as="sourcePoint" />
          </mxGeometry>
        </mxCell>
        <mxCell id="z8D4OWpc4WG4uMuVLdWu-9" value="" style="endArrow=classic;html=1;rounded=0;" edge="1" parent="1">
          <mxGeometry width="50" height="50" relative="1" as="geometry">
            <mxPoint x="220" y="350" as="sourcePoint" />
            <mxPoint x="590" y="350" as="targetPoint" />
          </mxGeometry>
        </mxCell>
        <mxCell id="z8D4OWpc4WG4uMuVLdWu-10" value="dar_botella(botella)" style="edgeLabel;html=1;align=center;verticalAlign=middle;resizable=0;points=[];" connectable="0" vertex="1" parent="z8D4OWpc4WG4uMuVLdWu-9">
          <mxGeometry x="-0.0324" y="-1" relative="1" as="geometry">
            <mxPoint y="-11" as="offset" />
          </mxGeometry>
        </mxCell>
        <mxCell id="z8D4OWpc4WG4uMuVLdWu-12" value=":AlmacenBotellas" style="rounded=0;whiteSpace=wrap;html=1;" vertex="1" parent="1">
          <mxGeometry x="760" y="200" width="120" height="60" as="geometry" />
        </mxCell>
        <mxCell id="z8D4OWpc4WG4uMuVLdWu-13" value="" style="rounded=0;whiteSpace=wrap;html=1;" vertex="1" parent="1">
          <mxGeometry x="810" y="290" width="20" height="360" as="geometry" />
        </mxCell>
        <mxCell id="z8D4OWpc4WG4uMuVLdWu-14" style="edgeStyle=orthogonalEdgeStyle;rounded=0;orthogonalLoop=1;jettySize=auto;html=1;exitX=0.5;exitY=0.5;exitDx=0;exitDy=0;exitPerimeter=0;dashed=1;endArrow=none;endFill=0;" edge="1" parent="1">
          <mxGeometry relative="1" as="geometry">
            <mxPoint x="820" y="700" as="targetPoint" />
            <mxPoint x="819.5" y="260" as="sourcePoint" />
          </mxGeometry>
        </mxCell>
        <mxCell id="z8D4OWpc4WG4uMuVLdWu-16" value="" style="endArrow=classic;html=1;rounded=0;" edge="1" parent="1">
          <mxGeometry width="50" height="50" relative="1" as="geometry">
            <mxPoint x="590" y="380" as="sourcePoint" />
            <mxPoint x="820" y="380" as="targetPoint" />
          </mxGeometry>
        </mxCell>
        <mxCell id="z8D4OWpc4WG4uMuVLdWu-17" value="corroborar_botella(botella)" style="edgeLabel;html=1;align=center;verticalAlign=middle;resizable=0;points=[];" connectable="0" vertex="1" parent="z8D4OWpc4WG4uMuVLdWu-16">
          <mxGeometry x="-0.2046" y="-2" relative="1" as="geometry">
            <mxPoint x="28" y="-12" as="offset" />
          </mxGeometry>
        </mxCell>
        <mxCell id="z8D4OWpc4WG4uMuVLdWu-19" value="" style="endArrow=none;html=1;rounded=0;endFill=0;startArrow=classic;startFill=1;" edge="1" parent="1">
          <mxGeometry width="50" height="50" relative="1" as="geometry">
            <mxPoint x="590" y="430" as="sourcePoint" />
            <mxPoint x="820" y="430" as="targetPoint" />
          </mxGeometry>
        </mxCell>
        <mxCell id="z8D4OWpc4WG4uMuVLdWu-20" value="resultado_botella(OK)" style="edgeLabel;html=1;align=center;verticalAlign=middle;resizable=0;points=[];" connectable="0" vertex="1" parent="z8D4OWpc4WG4uMuVLdWu-19">
          <mxGeometry x="-0.2046" y="-2" relative="1" as="geometry">
            <mxPoint x="28" y="-12" as="offset" />
          </mxGeometry>
        </mxCell>
        <mxCell id="z8D4OWpc4WG4uMuVLdWu-23" value="&lt;font style=&quot;font-size: 9px;&quot;&gt;if Almacen tiene espacio&lt;/font&gt;" style="shape=umlFrame;whiteSpace=wrap;html=1;pointerEvents=0;" vertex="1" parent="1">
          <mxGeometry x="110" y="400" width="820" height="230" as="geometry" />
        </mxCell>
        <mxCell id="z8D4OWpc4WG4uMuVLdWu-24" value="" style="endArrow=none;dashed=1;html=1;rounded=0;exitX=-0.002;exitY=0.493;exitDx=0;exitDy=0;exitPerimeter=0;entryX=1;entryY=0.489;entryDx=0;entryDy=0;entryPerimeter=0;" edge="1" parent="1" source="z8D4OWpc4WG4uMuVLdWu-23" target="z8D4OWpc4WG4uMuVLdWu-23">
          <mxGeometry width="50" height="50" relative="1" as="geometry">
            <mxPoint x="370" y="550" as="sourcePoint" />
            <mxPoint x="420" y="500" as="targetPoint" />
          </mxGeometry>
        </mxCell>
        <mxCell id="z8D4OWpc4WG4uMuVLdWu-25" value="else" style="text;html=1;strokeColor=none;fillColor=none;align=center;verticalAlign=middle;whiteSpace=wrap;rounded=0;" vertex="1" parent="1">
          <mxGeometry x="100" y="510" width="60" height="30" as="geometry" />
        </mxCell>
        <mxCell id="z8D4OWpc4WG4uMuVLdWu-26" value="" style="endArrow=none;html=1;rounded=0;endFill=0;startArrow=classic;startFill=1;" edge="1" parent="1">
          <mxGeometry width="50" height="50" relative="1" as="geometry">
            <mxPoint x="590" y="529.33" as="sourcePoint" />
            <mxPoint x="820" y="529.33" as="targetPoint" />
          </mxGeometry>
        </mxCell>
        <mxCell id="z8D4OWpc4WG4uMuVLdWu-27" value="resultado_botella(error)" style="edgeLabel;html=1;align=center;verticalAlign=middle;resizable=0;points=[];" connectable="0" vertex="1" parent="z8D4OWpc4WG4uMuVLdWu-26">
          <mxGeometry x="-0.2046" y="-2" relative="1" as="geometry">
            <mxPoint x="28" y="-12" as="offset" />
          </mxGeometry>
        </mxCell>
        <mxCell id="z8D4OWpc4WG4uMuVLdWu-28" value="" style="endArrow=none;html=1;rounded=0;endFill=0;startArrow=classic;startFill=1;" edge="1" parent="1">
          <mxGeometry width="50" height="50" relative="1" as="geometry">
            <mxPoint x="220" y="570" as="sourcePoint" />
            <mxPoint x="590" y="570" as="targetPoint" />
          </mxGeometry>
        </mxCell>
        <mxCell id="z8D4OWpc4WG4uMuVLdWu-29" value="dar_botella(botella)" style="edgeLabel;html=1;align=center;verticalAlign=middle;resizable=0;points=[];" connectable="0" vertex="1" parent="z8D4OWpc4WG4uMuVLdWu-28">
          <mxGeometry x="-0.0324" y="-1" relative="1" as="geometry">
            <mxPoint y="-11" as="offset" />
          </mxGeometry>
        </mxCell>
        <mxCell id="z8D4OWpc4WG4uMuVLdWu-30" value="" style="endArrow=none;html=1;rounded=0;endFill=0;startArrow=classic;startFill=1;" edge="1" parent="1">
          <mxGeometry width="50" height="50" relative="1" as="geometry">
            <mxPoint x="220" y="599.05" as="sourcePoint" />
            <mxPoint x="590" y="599.05" as="targetPoint" />
          </mxGeometry>
        </mxCell>
        <mxCell id="z8D4OWpc4WG4uMuVLdWu-31" value="mensaje(alarma)" style="edgeLabel;html=1;align=center;verticalAlign=middle;resizable=0;points=[];" connectable="0" vertex="1" parent="z8D4OWpc4WG4uMuVLdWu-30">
          <mxGeometry x="-0.0324" y="-1" relative="1" as="geometry">
            <mxPoint y="-11" as="offset" />
          </mxGeometry>
        </mxCell>
        <mxCell id="z8D4OWpc4WG4uMuVLdWu-32" value="" style="endArrow=none;html=1;rounded=0;endFill=0;startArrow=classic;startFill=1;" edge="1" parent="1">
          <mxGeometry width="50" height="50" relative="1" as="geometry">
            <mxPoint x="220" y="479.99999999999994" as="sourcePoint" />
            <mxPoint x="590" y="479.99999999999994" as="targetPoint" />
          </mxGeometry>
        </mxCell>
        <mxCell id="z8D4OWpc4WG4uMuVLdWu-33" value="mensaje(ticket)" style="edgeLabel;html=1;align=center;verticalAlign=middle;resizable=0;points=[];" connectable="0" vertex="1" parent="z8D4OWpc4WG4uMuVLdWu-32">
          <mxGeometry x="-0.0324" y="-1" relative="1" as="geometry">
            <mxPoint y="-11" as="offset" />
          </mxGeometry>
        </mxCell>
        <mxCell id="z8D4OWpc4WG4uMuVLdWu-34" value="" style="endArrow=none;html=1;rounded=0;endFill=0;startArrow=classic;startFill=1;" edge="1" parent="1">
          <mxGeometry width="50" height="50" relative="1" as="geometry">
            <mxPoint x="220" y="310" as="sourcePoint" />
            <mxPoint x="590" y="310" as="targetPoint" />
          </mxGeometry>
        </mxCell>
        <mxCell id="z8D4OWpc4WG4uMuVLdWu-35" value="mensaje(solicitar_botella)" style="edgeLabel;html=1;align=center;verticalAlign=middle;resizable=0;points=[];" connectable="0" vertex="1" parent="z8D4OWpc4WG4uMuVLdWu-34">
          <mxGeometry x="-0.0324" y="-1" relative="1" as="geometry">
            <mxPoint y="-11" as="offset" />
          </mxGeometry>
        </mxCell>
      </root>
    </mxGraphModel>
  </diagram>
</mxfile>
